<svg width="23" height="24" viewBox="0 0 23 24" fill="none" xmlns="http://www.w3.org/2000/svg">
<path d="M13.4814 23.9969H9.52102C9.05056 23.9969 8.65391 23.64 8.60471 23.1723L8.3372 20.6646C7.33786 20.2985 6.4031 19.7569 5.58519 19.0738L3.27904 20.0985C2.84856 20.2892 2.34121 20.1262 2.10752 19.7169L0.124228 16.28C-0.112537 15.8708 -0.00184171 15.3508 0.379442 15.0738L2.41808 13.5877C2.32276 13.0523 2.27356 12.52 2.27356 11.9969C2.27356 11.4738 2.32276 10.9446 2.41808 10.4062L0.379442 8.92C-0.00184171 8.64308 -0.112537 8.12 0.124228 7.71385L2.10444 4.28C2.34121 3.87077 2.84548 3.70769 3.27597 3.89846L5.58212 4.92308C6.40003 4.23692 7.33479 3.69846 8.33412 3.33231L8.60163 0.824615C8.65083 0.353846 9.04749 0 9.51794 0H13.4784C13.9488 0 14.3455 0.356923 14.3947 0.824615L14.6622 3.33231C15.6615 3.69846 16.5963 4.24 17.4142 4.92308L19.7204 3.89846C20.1508 3.70769 20.6582 3.87077 20.8919 4.28L22.8721 7.71385C23.1089 8.12308 22.9982 8.64308 22.6169 8.92L20.5782 10.4062C20.6736 10.9415 20.7228 11.4738 20.7228 11.9969C20.7228 12.52 20.6736 13.0492 20.5782 13.5877L22.6169 15.0738C22.9982 15.3508 23.1089 15.8738 22.8721 16.28L20.8919 19.7138C20.6551 20.1231 20.1508 20.2892 19.7204 20.0954L17.4142 19.0708C16.5963 19.7569 15.6615 20.2954 14.6622 20.6615L14.3947 23.1692C14.3455 23.64 13.9488 23.9938 13.4784 23.9938L13.4814 23.9969ZM10.3512 22.1508H12.6543L12.8972 19.8738C12.9372 19.5015 13.1986 19.1877 13.5583 19.0862C14.696 18.7569 15.7507 18.1446 16.6117 17.32C16.8822 17.0615 17.282 16.9908 17.6233 17.1415L19.7173 18.0708L20.8673 16.0769L19.0162 14.7262C18.7149 14.5046 18.5734 14.1231 18.6626 13.76C18.8102 13.16 18.884 12.5692 18.884 11.9969C18.884 11.4246 18.8102 10.8338 18.6626 10.2338C18.5734 9.87077 18.7118 9.48923 19.0162 9.26769L20.8673 7.91692L19.7173 5.92308L17.6233 6.85231C17.282 7.00308 16.8792 6.93538 16.6117 6.67385C15.7538 5.84923 14.696 5.23692 13.5583 4.90769C13.1986 4.80308 12.9372 4.49231 12.8972 4.12L12.6543 1.84308H10.3512L10.1083 4.12C10.0683 4.49231 9.80698 4.80615 9.44722 4.90769C8.30952 5.23692 7.25484 5.84923 6.39388 6.67385C6.12329 6.93231 5.72356 7.00308 5.38225 6.85231L3.28826 5.92308L2.13827 7.91692L3.98933 9.26769C4.29067 9.48923 4.43212 9.87077 4.34294 10.2338C4.19535 10.8338 4.12155 11.4277 4.12155 11.9969C4.12155 12.5662 4.19535 13.16 4.34294 13.76C4.43212 14.1231 4.29375 14.5046 3.98933 14.7262L2.13827 16.0769L3.28826 18.0708L5.38225 17.1415C5.72356 16.9877 6.12637 17.0585 6.39388 17.32C7.25177 18.1446 8.30952 18.7569 9.44722 19.0862C9.80698 19.1908 10.0683 19.5015 10.1083 19.8738L10.3512 22.1508ZM11.5012 16.8308C8.8384 16.8308 6.67062 14.6615 6.67062 11.9969C6.67062 9.33231 8.8384 7.16308 11.5012 7.16308C14.1641 7.16308 16.3318 9.33231 16.3318 11.9969C16.3318 14.6615 14.1641 16.8308 11.5012 16.8308ZM11.5012 9.01231C9.85618 9.01231 8.51554 10.3508 8.51554 12C8.51554 13.6492 9.8531 14.9877 11.5012 14.9877C13.1494 14.9877 14.4869 13.6492 14.4869 12C14.4869 10.3508 13.1494 9.01231 11.5012 9.01231Z" fill="#888888"/>
</svg>
