<svg width="15" height="18" viewBox="0 0 15 18" fill="none" xmlns="http://www.w3.org/2000/svg">
<g clip-path="url(#clip0_1_661)">
<path d="M14.8667 8.60103L13.0955 6.53782C12.8968 6.30633 12.5464 6.27943 12.3147 6.47782C12.2024 6.57397 12.1342 6.708 12.1229 6.85523C12.1116 7.00254 12.1584 7.1454 12.2546 7.25755L13.2422 8.40791H7.11077C6.80544 8.40791 6.55698 8.65599 6.55698 8.96085C6.55698 9.26571 6.80544 9.51379 7.11077 9.51379H13.2422L12.2546 10.6642C12.1583 10.7763 12.1115 10.9192 12.1228 11.0665C12.1342 11.2137 12.2023 11.3477 12.3146 11.4439C12.4188 11.5331 12.547 11.5768 12.6746 11.5768C12.8308 11.5768 12.9861 11.5113 13.0955 11.384L14.8667 9.32076C14.9526 9.22057 15 9.09282 15 8.96085C15 8.82889 14.9526 8.70114 14.8667 8.60103Z" fill="#666666"/>
<path d="M12.9521 13.0501C12.6468 13.0501 12.3983 13.2982 12.3983 13.6031V16.4155C12.3983 16.6794 12.1833 16.8941 11.9189 16.8941H1.11213V16.6454C1.11213 16.6229 1.11064 16.5996 1.10758 16.5759V1.58454C1.10758 1.32062 1.32265 1.10588 1.58699 1.10588H11.9189C12.1833 1.10588 12.3983 1.32062 12.3983 1.58454V4.31862C12.3983 4.62348 12.6468 4.87156 12.9521 4.87156C13.2575 4.87156 13.5059 4.62348 13.5059 4.31862V1.58454C13.5059 0.710816 12.794 0 11.9189 0H1.58699C0.711912 0 0 0.710816 0 1.58454V17.3958C0 17.4046 0.000247967 17.4138 0.000661244 17.423C0.000330622 17.4306 0 17.4386 0 17.447C0 17.7518 0.248463 17.9999 0.553792 17.9999H11.9189C12.794 17.9999 13.5059 17.2891 13.5059 16.4154V13.603C13.5059 13.2981 13.2575 13.05 12.9521 13.05V13.0501Z" fill="#666666"/>
</g>
<defs>
<clipPath id="clip0_1_661">
<rect width="15" height="18" fill="white"/>
</clipPath>
</defs>
</svg>
