<svg width="16" height="16" viewBox="0 0 16 16" fill="none" xmlns="http://www.w3.org/2000/svg">
<g clip-path="url(#clip0_1_671)">
<path d="M8.00264 16C3.58957 16 0 12.4104 0 8.00264C0 3.59485 3.58957 0 8.00264 0C12.4157 0 16.0053 3.58957 16.0053 8.00264C16.0053 12.4157 12.4157 16.0053 8.00264 16.0053V16ZM8.00264 1.3197C4.31805 1.3197 1.3197 4.31805 1.3197 8.00264C1.3197 11.6872 4.31805 14.6856 8.00264 14.6856C11.6872 14.6856 14.6856 11.6872 14.6856 8.00264C14.6856 4.31805 11.6872 1.3197 8.00264 1.3197Z" fill="#666666"/>
<path d="M2.75025 13.7882C2.57605 13.7882 2.40713 13.7195 2.27516 13.5876C2.02178 13.3289 2.02706 12.9066 2.28572 12.6532L12.7905 2.41237C13.0544 2.15899 13.4715 2.16427 13.7248 2.42293C13.9782 2.68159 13.973 3.10389 13.7143 3.35727L3.20951 13.5981C3.08282 13.7248 2.9139 13.7829 2.75025 13.7829V13.7882Z" fill="#666666"/>
</g>
<defs>
<clipPath id="clip0_1_671">
<rect width="16" height="16" fill="white"/>
</clipPath>
</defs>
</svg>
