<svg width="20" height="20" viewBox="0 0 20 20" fill="none" xmlns="http://www.w3.org/2000/svg">
<g clip-path="url(#clip0_1_14)">
<path fill-rule="evenodd" clip-rule="evenodd" d="M20 10.227C20 9.51767 19.9346 8.83656 19.8145 8.18183L10.2043 8.18182L10.2043 12.0499L15.6962 12.0499C15.4597 13.3001 14.7407 14.3589 13.6602 15.0683L13.6602 17.577L16.9584 17.577C18.8878 15.8361 20.001 13.2727 20.001 10.227L20 10.227Z" fill="#3E82F1"/>
<path fill-rule="evenodd" clip-rule="evenodd" d="M10.2043 20C12.9594 20 15.2694 19.1041 16.9575 17.577L13.6592 15.0683C12.745 15.6684 11.577 16.0226 10.2033 16.0226C7.5453 16.0226 5.29584 14.2638 4.49315 11.9001L1.08531 11.9001L1.08531 14.4908C2.76472 17.7588 6.21485 20 10.2043 20Z" fill="#32A753"/>
<path fill-rule="evenodd" clip-rule="evenodd" d="M4.49411 11.9001C4.29031 11.3 4.174 10.6594 4.174 10C4.174 9.34056 4.29031 8.69995 4.49411 8.09986L4.49411 5.50919L1.08532 5.50919C0.394135 6.85916 -1.45672e-06 8.38625 -1.73887e-06 10C-2.02103e-06 11.6138 0.394134 13.1408 1.08531 14.4908L4.49411 11.9001Z" fill="#F9BB00"/>
<path fill-rule="evenodd" clip-rule="evenodd" d="M10.2043 3.97739C11.702 3.97739 13.0478 4.48234 14.1053 5.47245L17.0324 2.60386C15.2646 0.991053 12.9546 2.07529e-06 10.2043 1.59441e-06C6.21485 8.96877e-07 2.76472 2.24117 1.08532 5.50918L4.49411 8.09986C5.2968 5.73622 7.54626 3.97739 10.2043 3.97739Z" fill="#E74133"/>
</g>
<defs>
<clipPath id="clip0_1_14">
<rect width="20" height="20" fill="white"/>
</clipPath>
</defs>
</svg>
