<svg width="18" height="23" viewBox="0 0 18 23" fill="none" xmlns="http://www.w3.org/2000/svg">
<path d="M13.4207 0.285614C13.4183 0.198026 13.4131 0.0866362 13.4098 0C11.0631 0.170416 8.95171 2.32442 8.95219 4.85734C8.95219 4.94493 8.96825 5.04585 8.97203 5.13201C11.3627 5.26006 13.4849 2.83995 13.4211 0.285614H13.4207Z" fill="#AEAEAE"/>
<path d="M17.4293 7.59635C17.4293 7.59635 15.0245 8.97777 15.0245 11.7544C15.0245 14.5311 16.945 15.8158 18 16.3233C18 16.3233 17.7009 17.4657 16.9134 18.7829C16.1258 20.1001 15.2598 21.2901 14.4093 21.7976C13.5589 22.3055 12.8115 22.4535 11.3856 21.7976C10.0448 21.1806 8.78097 21.1868 7.52707 21.75C6.20797 22.3426 5.2848 22.4302 4.40508 21.7995C4.40508 21.7995 3.81073 21.4324 2.86582 20.1948C1.92091 18.9571 0.550787 16.5775 0.157232 13.896C-0.236324 11.2146 0.157232 9.84984 0.803079 8.40607C1.44893 6.96229 3.41718 5.56564 4.99234 5.45472C6.56704 5.34381 7.61825 5.96645 7.9726 6.08545C8.32694 6.20446 8.99452 6.50197 9.37532 6.39487C9.75612 6.28776 10.0476 6.17685 10.3703 6.05784C10.693 5.93884 11.8193 5.39141 12.8899 5.35952C13.961 5.32762 14.9134 5.58944 15.7563 6.04166C16.5992 6.49388 17.229 7.25552 17.4297 7.59683L17.4293 7.59635Z" fill="#AEAEAE"/>
</svg>
