<svg width="17" height="18" viewBox="0 0 17 18" fill="none" xmlns="http://www.w3.org/2000/svg">
<g clip-path="url(#clip0_1_622)">
<path d="M15.0379 15.7415H1.95939C1.27105 15.7415 0.625555 15.375 0.274244 14.7869C-0.0770661 14.1989 -0.091347 13.4602 0.234258 12.8608C0.26282 12.8068 0.302806 12.7585 0.348505 12.7159L1.67377 11.4943V7.25284C1.67377 3.3892 4.86413 0 8.50005 0C12.136 0 15.3263 3.3892 15.3263 7.25V11.4915L16.6516 12.7131C16.6973 12.7557 16.7344 12.804 16.7658 12.858C17.0943 13.4602 17.08 14.1989 16.7259 14.7841C16.3745 15.3722 15.729 15.7386 15.0407 15.7386L15.0379 15.7415ZM1.2025 13.4744C1.10254 13.7102 1.12253 13.983 1.25391 14.2045C1.39958 14.4517 1.67092 14.6023 1.95654 14.6023H15.035C15.3235 14.6023 15.592 14.4489 15.7376 14.2045C15.869 13.983 15.889 13.7102 15.789 13.4744L14.3609 12.1562C14.2438 12.0483 14.1781 11.8977 14.1781 11.7386V7.25C14.1781 3.99148 11.5219 1.13636 8.49434 1.13636C5.46678 1.13636 2.81625 3.99432 2.81625 7.25V11.7386C2.81625 11.8977 2.75056 12.0483 2.63345 12.1562L1.20536 13.4744H1.2025Z" fill="#666666"/>
<path d="M8.5 18C7.1119 18 5.9837 16.8778 5.9837 15.4971C5.9837 15.1846 6.24076 14.929 6.55494 14.929C6.86912 14.929 7.12618 15.1846 7.12618 15.4971C7.12618 16.25 7.74311 16.8636 8.5 16.8636C9.25689 16.8636 9.87382 16.25 9.87382 15.4971C9.87382 15.1846 10.1309 14.929 10.4451 14.929C10.7592 14.929 11.0163 15.1846 11.0163 15.4971C11.0163 16.8778 9.88811 18 8.5 18Z" fill="#666666"/>
<path d="M10.6136 12.3068H2.24497C1.93079 12.3068 1.67374 12.0511 1.67374 11.7386C1.67374 11.4261 1.93079 11.1704 2.24497 11.1704H10.6136C10.9278 11.1704 11.1848 11.4261 11.1848 11.7386C11.1848 12.0511 10.9278 12.3068 10.6136 12.3068Z" fill="#666666"/>
</g>
<defs>
<clipPath id="clip0_1_622">
<rect width="17" height="18" fill="white"/>
</clipPath>
</defs>
</svg>
