<svg width="21" height="27" viewBox="0 0 21 27" fill="none" xmlns="http://www.w3.org/2000/svg">
<path d="M10.5 27C11.9438 27 13.125 25.7538 13.125 24.2308H7.875C7.875 25.7538 9.05625 27 10.5 27ZM18.375 18.6923V11.7692C18.375 7.51846 16.2356 3.96 12.4688 3.01846V2.07692C12.4688 0.927692 11.5894 0 10.5 0C9.41063 0 8.53125 0.927692 8.53125 2.07692V3.01846C4.7775 3.96 2.625 7.50462 2.625 11.7692V18.6923L0 21.4615V22.8462H21V21.4615L18.375 18.6923ZM15.75 20.0769H5.25V11.7692C5.25 8.33538 7.23187 5.53846 10.5 5.53846C13.7681 5.53846 15.75 8.33538 15.75 11.7692V20.0769Z" fill="#CCCCCC"/>
</svg>
