<svg width="29" height="35" viewBox="0 0 29 35" fill="none" xmlns="http://www.w3.org/2000/svg">
<path d="M14.5 35C16.4937 35 18.125 33.3846 18.125 31.4103H10.875C10.875 33.3846 12.5063 35 14.5 35ZM25.375 24.2308V15.2564C25.375 9.74615 22.4206 5.13333 17.2188 3.91282V2.69231C17.2188 1.20256 16.0044 0 14.5 0C12.9956 0 11.7812 1.20256 11.7812 2.69231V3.91282C6.5975 5.13333 3.625 9.72821 3.625 15.2564V24.2308L0 27.8205V29.6154H29V27.8205L25.375 24.2308ZM21.75 26.0256H7.25V15.2564C7.25 10.8051 9.98687 7.17949 14.5 7.17949C19.0131 7.17949 21.75 10.8051 21.75 15.2564V26.0256Z" fill="#EFAF13"/>
</svg>
